<mxfile host="app.diagrams.net" modified="2023-05-04T02:20:07.922Z" agent="Mozilla/5.0 (Windows NT 10.0; Win64; x64) AppleWebKit/537.36 (KHTML, like Gecko) Chrome/113.0.0.0 Safari/537.36" etag="sgGFIaVGFcObHDjNikh-" version="21.2.7" type="github">
  <diagram name="Page-1" id="Pj35j-wqYLKcep_gX9Wg">
    <mxGraphModel dx="1154" dy="543" grid="1" gridSize="10" guides="1" tooltips="1" connect="1" arrows="1" fold="1" page="1" pageScale="1" pageWidth="850" pageHeight="1100" math="0" shadow="0">
      <root>
        <mxCell id="0" />
        <mxCell id="1" parent="0" />
        <mxCell id="iwkqgoZi0rt_ne5TUhef-1" value="文章信息" style="rounded=0;whiteSpace=wrap;html=1;" parent="1" vertex="1">
          <mxGeometry x="340" y="360" width="120" height="60" as="geometry" />
        </mxCell>
        <mxCell id="iwkqgoZi0rt_ne5TUhef-2" value="标题（title）" style="ellipse;whiteSpace=wrap;html=1;" parent="1" vertex="1">
          <mxGeometry x="170" y="240" width="120" height="80" as="geometry" />
        </mxCell>
        <mxCell id="iwkqgoZi0rt_ne5TUhef-3" value="日期（date）" style="ellipse;whiteSpace=wrap;html=1;" parent="1" vertex="1">
          <mxGeometry x="340" y="220" width="120" height="80" as="geometry" />
        </mxCell>
        <mxCell id="iwkqgoZi0rt_ne5TUhef-4" value="标签（tags）" style="ellipse;whiteSpace=wrap;html=1;" parent="1" vertex="1">
          <mxGeometry x="510" y="240" width="120" height="80" as="geometry" />
        </mxCell>
        <mxCell id="iwkqgoZi0rt_ne5TUhef-5" value="短链接（slug）" style="ellipse;whiteSpace=wrap;html=1;" parent="1" vertex="1">
          <mxGeometry x="550" y="350" width="120" height="80" as="geometry" />
        </mxCell>
        <mxCell id="iwkqgoZi0rt_ne5TUhef-6" value="摘要（summary）" style="ellipse;whiteSpace=wrap;html=1;" parent="1" vertex="1">
          <mxGeometry x="220" y="470" width="120" height="80" as="geometry" />
        </mxCell>
        <mxCell id="iwkqgoZi0rt_ne5TUhef-7" value="内容（contentMarkdown）" style="ellipse;whiteSpace=wrap;html=1;" parent="1" vertex="1">
          <mxGeometry x="420" y="480" width="120" height="80" as="geometry" />
        </mxCell>
        <mxCell id="iwkqgoZi0rt_ne5TUhef-9" value="" style="endArrow=none;html=1;rounded=0;entryX=0.383;entryY=1;entryDx=0;entryDy=0;exitX=0.794;exitY=0.103;exitDx=0;exitDy=0;exitPerimeter=0;entryPerimeter=0;" parent="1" source="iwkqgoZi0rt_ne5TUhef-6" target="iwkqgoZi0rt_ne5TUhef-1" edge="1">
          <mxGeometry width="50" height="50" relative="1" as="geometry">
            <mxPoint x="240" y="460" as="sourcePoint" />
            <mxPoint x="290" y="410" as="targetPoint" />
          </mxGeometry>
        </mxCell>
        <mxCell id="iwkqgoZi0rt_ne5TUhef-11" value="" style="endArrow=none;html=1;rounded=0;entryX=0.25;entryY=0;entryDx=0;entryDy=0;" parent="1" source="iwkqgoZi0rt_ne5TUhef-2" target="iwkqgoZi0rt_ne5TUhef-1" edge="1">
          <mxGeometry width="50" height="50" relative="1" as="geometry">
            <mxPoint x="260" y="370" as="sourcePoint" />
            <mxPoint x="310" y="320" as="targetPoint" />
          </mxGeometry>
        </mxCell>
        <mxCell id="iwkqgoZi0rt_ne5TUhef-12" value="" style="endArrow=none;html=1;rounded=0;exitX=0.5;exitY=0;exitDx=0;exitDy=0;entryX=0.5;entryY=1;entryDx=0;entryDy=0;" parent="1" source="iwkqgoZi0rt_ne5TUhef-1" target="iwkqgoZi0rt_ne5TUhef-3" edge="1">
          <mxGeometry width="50" height="50" relative="1" as="geometry">
            <mxPoint x="310" y="190" as="sourcePoint" />
            <mxPoint x="390" y="310" as="targetPoint" />
          </mxGeometry>
        </mxCell>
        <mxCell id="iwkqgoZi0rt_ne5TUhef-13" value="" style="endArrow=none;html=1;rounded=0;exitX=0.75;exitY=0;exitDx=0;exitDy=0;" parent="1" edge="1" target="iwkqgoZi0rt_ne5TUhef-4" source="iwkqgoZi0rt_ne5TUhef-1">
          <mxGeometry width="50" height="50" relative="1" as="geometry">
            <mxPoint x="460" y="370" as="sourcePoint" />
            <mxPoint x="580" y="330" as="targetPoint" />
          </mxGeometry>
        </mxCell>
        <mxCell id="iwkqgoZi0rt_ne5TUhef-14" value="" style="endArrow=none;html=1;rounded=0;entryX=0.642;entryY=1;entryDx=0;entryDy=0;exitX=0.5;exitY=0;exitDx=0;exitDy=0;entryPerimeter=0;" parent="1" source="iwkqgoZi0rt_ne5TUhef-7" target="iwkqgoZi0rt_ne5TUhef-1" edge="1">
          <mxGeometry width="50" height="50" relative="1" as="geometry">
            <mxPoint x="420" y="480" as="sourcePoint" />
            <mxPoint x="470" y="430" as="targetPoint" />
          </mxGeometry>
        </mxCell>
        <mxCell id="iwkqgoZi0rt_ne5TUhef-15" value="" style="endArrow=none;html=1;rounded=0;exitX=1;exitY=0.5;exitDx=0;exitDy=0;entryX=0;entryY=0.5;entryDx=0;entryDy=0;" parent="1" source="iwkqgoZi0rt_ne5TUhef-1" target="iwkqgoZi0rt_ne5TUhef-5" edge="1">
          <mxGeometry width="50" height="50" relative="1" as="geometry">
            <mxPoint x="480" y="430" as="sourcePoint" />
            <mxPoint x="530" y="380" as="targetPoint" />
          </mxGeometry>
        </mxCell>
        <mxCell id="iwkqgoZi0rt_ne5TUhef-16" value="文章链接（url）" style="ellipse;whiteSpace=wrap;html=1;" parent="1" vertex="1">
          <mxGeometry x="120" y="350" width="120" height="80" as="geometry" />
        </mxCell>
        <mxCell id="iwkqgoZi0rt_ne5TUhef-17" value="" style="endArrow=none;html=1;rounded=0;exitX=1;exitY=0.5;exitDx=0;exitDy=0;entryX=0;entryY=0.5;entryDx=0;entryDy=0;" parent="1" source="iwkqgoZi0rt_ne5TUhef-16" target="iwkqgoZi0rt_ne5TUhef-1" edge="1">
          <mxGeometry width="50" height="50" relative="1" as="geometry">
            <mxPoint x="250" y="420" as="sourcePoint" />
            <mxPoint x="300" y="370" as="targetPoint" />
          </mxGeometry>
        </mxCell>
      </root>
    </mxGraphModel>
  </diagram>
</mxfile>
